<svg width="109" height="109" viewBox="0 0 109 109" fill="none" xmlns="http://www.w3.org/2000/svg">
<path d="M0 12C0 5.37258 5.37258 0 12 0H97C103.627 0 109 5.37258 109 12V97C109 103.627 103.627 109 97 109H12C5.37258 109 0 103.627 0 97V12Z" fill="url(#paint0_linear_413_5380)"/>
<path d="M26.2091 69.6634C25.808 68.0589 24.4709 64.1143 23.5349 61.9749C25.5406 61.5737 27.0783 60.1697 29.552 57.8297C32.2263 55.5566 40.2491 46.7314 45.464 37.8394L52.4171 42.6531C46.4669 51.2109 38.7783 59.568 31.2903 65.5851V65.7857C31.2903 65.7857 26.2091 68.1926 26.2091 69.6634ZM26.2091 69.6634L25.7411 63.312L29.4183 60.8383L49.3417 58.0971C49.2749 60.1697 49.4754 63.2451 49.676 64.9834C31.1566 67.9251 28.148 68.5937 26.2091 69.6634ZM25.6074 53.3503C25.2063 51.6789 23.8691 47.8011 23 45.6617C24.5377 45.2606 25.7411 43.9234 27.4126 41.784C29.1509 39.7114 34.2989 31.6886 37.3074 24L45.3971 27.4097C41.3857 35.2989 35.7697 43.4554 30.5549 49.0714V49.3389C30.5549 49.3389 25.6074 51.8794 25.6074 53.3503ZM25.6074 53.3503L25.4069 47.6006L28.8834 45.3943L43.3246 44.3246C42.8566 46.3303 42.5223 49.272 42.4554 50.8766C29.6189 52.1469 27.1451 52.6149 25.6074 53.3503ZM23.7354 76.0817C30.3543 75.2126 40.4497 73.4743 49.8097 71.8029L50.4114 79.0234C41.5863 80.8286 32.0926 82.6337 24.9389 84.0377L23.7354 76.0817ZM56.3617 49.3389H80.8314V56.9606H56.3617V49.3389ZM53.0189 49.3389H61.3091V74.3434C61.3091 77.2183 61.844 77.6863 65.2537 77.6863C66.7914 77.6863 73.2097 77.6863 75.1486 77.6863C78.3577 77.6863 78.8926 76.0817 79.2937 67.1897C81.1657 68.5937 84.6423 69.9977 86.8486 70.4657C85.9126 81.8314 83.6394 85.2411 75.7503 85.2411C73.8783 85.2411 65.9891 85.2411 64.2509 85.2411C55.6931 85.2411 53.0189 82.8343 53.0189 74.4103V49.3389ZM52.0829 27.8109H83.0377V60.1697H74.8811V35.7669H52.0829V27.8109Z" fill="black"/>
<defs>
<linearGradient id="paint0_linear_413_5380" x1="1.5" y1="1.5" x2="109" y2="109" gradientUnits="userSpaceOnUse">
<stop stop-color="white"/>
<stop offset="1" stop-color="#E0E0E0"/>
</linearGradient>
</defs>
</svg>
