<svg width="22" height="22" viewBox="0 0 22 22" fill="none" xmlns="http://www.w3.org/2000/svg">
<path fill-rule="evenodd" clip-rule="evenodd" d="M22 0H0V22H22V0ZM9.8424 16.7259V15.0788C8.21088 15.6226 6.29967 16.0577 4.12431 16.384L4.3263 18C6.3929 17.6737 8.22641 17.2542 9.8424 16.7259ZM7.99334 4.62153L6.42397 4C5.92675 5.6626 5.35183 7.18535 4.69922 8.5838C4.48169 8.89456 4.24861 9.09656 4 9.22087L4.404 10.7281C5.16537 10.6038 5.89567 10.4795 6.61043 10.3552C5.91121 11.5205 5.33629 12.3441 4.88568 12.8257C4.68368 13.0122 4.43507 13.1676 4.15538 13.2919L4.57492 14.7836C6.15982 14.5816 7.8535 14.1931 9.6404 13.6027V12.1576C8.59933 12.4994 7.57381 12.7791 6.54828 12.9811C7.48058 11.8313 8.63041 10.0289 9.98224 7.57381L8.41287 6.98335C8.07103 7.66704 7.74473 8.28857 7.43396 8.86349C6.93674 8.95672 6.42397 9.03441 5.91121 9.09656C6.62597 7.93119 7.30966 6.43951 7.99334 4.62153ZM17.6737 17.2697C17.9534 16.7725 18.1709 15.7314 18.3263 14.1154L16.6948 13.556C16.6482 14.6748 16.5705 15.4362 16.4462 15.8402C16.3219 16.2442 16.0266 16.4462 15.5605 16.4462H12.8257C12.3441 16.4151 12.0954 16.1199 12.0954 15.5294V11.1942H17.2231V4.57492H10.1842V6.12875H15.6226V9.62486H10.495V16.2131C10.495 17.394 11.0233 18 12.0954 18H15.8246C16.7725 18 17.394 17.7514 17.6737 17.2697Z" fill="white"/>
</svg>
